<?xml version="1.0" encoding="UTF-8" standalone="no"?>
<!-- Created with Inkscape (http://www.inkscape.org/) -->

<svg
   width="167.02783mm"
   height="159.31703mm"
   viewBox="0 0 167.02783 159.31703"
   version="1.1"
   id="svg45147"
   inkscape:version="1.1.1 (3bf5ae0d25, 2021-09-20)"
   sodipodi:docname="grid.svg"
   xmlns:inkscape="http://www.inkscape.org/namespaces/inkscape"
   xmlns:sodipodi="http://sodipodi.sourceforge.net/DTD/sodipodi-0.dtd"
   xmlns="http://www.w3.org/2000/svg"
   xmlns:svg="http://www.w3.org/2000/svg">
  <sodipodi:namedview
     id="namedview45149"
     pagecolor="#ffffff"
     bordercolor="#666666"
     borderopacity="1.0"
     inkscape:pageshadow="2"
     inkscape:pageopacity="0.0"
     inkscape:pagecheckerboard="0"
     inkscape:document-units="mm"
     showgrid="false"
     fit-margin-top="0"
     fit-margin-left="0"
     fit-margin-right="0"
     fit-margin-bottom="0"
     inkscape:zoom="0.32756266"
     inkscape:cx="-38.160638"
     inkscape:cy="129.74617"
     inkscape:window-width="1366"
     inkscape:window-height="705"
     inkscape:window-x="-8"
     inkscape:window-y="-8"
     inkscape:window-maximized="1"
     inkscape:current-layer="layer1"
     showguides="false"
     inkscape:guide-bbox="true">
    <sodipodi:guide
       position="85.101918,88.493952"
       orientation="1,0"
       id="guide4130" />
    <sodipodi:guide
       position="85.101918,88.493952"
       orientation="0,-1"
       id="guide4165" />
    <sodipodi:guide
       position="25.130768,191.87279"
       orientation="0,-1"
       id="guide7828" />
  </sodipodi:namedview>
  <defs
     id="defs45144" />
  <g
     inkscape:label="Layer 1"
     inkscape:groupmode="layer"
     id="layer1"
     transform="translate(-56.418777,-6.5857115)">
    <g
       id="g1255"
       transform="translate(-10.91761,-3.9492553)">
      <path
         id="path984"
         style="color:#000000;fill:#f5f5f5;stroke-width:0.895844;stroke-linecap:round;stroke-linejoin:round;-inkscape-stroke:none"
         d="m 139.73419,79.891643 a 4.9276317,4.9276317 0 0 0 -4.67893,3.38409 l -22.79285,69.103977 a 4.9276317,4.9276317 0 0 0 4.67847,6.47051 h 68.74195 a 4.9276317,4.9276317 0 0 0 4.68588,-6.44737 L 167.93742,83.298419 A 4.9276317,4.9276317 0 0 0 163.252,79.891643 h -4.88818 v 0.947639 H 144.6483 v -0.947639 z m 3.56232,9.854602 h 16.37373 l 19.23422,59.249835 h -55.15049 z" />
      <path
         id="path986"
         style="color:#000000;fill:#f5f5f5;stroke-width:0.895844;stroke-linecap:round;stroke-linejoin:round;-inkscape-stroke:none"
         d="m 135.30015,19.400206 a 4.9276317,4.9276317 0 0 0 -0.49303,2.104526 v 63.314443 a 4.9271392,4.9271392 0 0 0 4.92707,4.92707 4.9271392,4.9271392 0 0 0 4.92707,-4.92707 V 26.506797 l 13.66321,0.210175 v 58.102203 a 4.9271392,4.9271392 0 0 0 4.92753,4.92707 4.9271392,4.9271392 0 0 0 4.92707,-4.92707 V 21.864899 a 4.9276317,4.9276317 0 0 0 -0.66432,-2.464693 z" />
      <path
         id="path1390"
         style="color:#000000;fill:#f5f5f5;stroke-width:0.895844;stroke-linecap:round;stroke-linejoin:round;-inkscape-stroke:none"
         d="M 133.64607,19.400206 97.302502,32.69399 a 2.2398326,2.2398326 0 0 0 0.768019,4.342376 h 41.035459 a 2.2396087,2.2396087 0 0 0 2.2397,-2.239239 2.2396087,2.2396087 0 0 0 -2.2397,-2.239704 h -28.39211 l 29.42261,-10.762428 a 2.2396087,2.2396087 0 0 0 1.45178,-2.394789 z" />
      <path
         style="color:#000000;fill:#f5f5f5;stroke-width:0.895844;stroke-linecap:round;stroke-linejoin:round;-inkscape-stroke:none"
         d="M 138.59859,50.246646 97.3023,65.351758 a 2.2398327,2.2398327 0 0 0 0.768116,4.342736 H 139.106 a 2.2396087,2.2396087 0 0 0 2.23961,-2.239609 2.2396087,2.2396087 0 0 0 -2.23961,-2.239608 h -28.39229 l 29.42286,-10.762368 a 2.2396087,2.2396087 0 0 0 1.33501,-2.872997 2.2396087,2.2396087 0 0 0 -2.87299,-1.333266 z"
         id="path4353" />
      <path
         id="path4357"
         style="color:#000000;fill:#f5f5f5;stroke-width:0.895844;stroke-linecap:round;stroke-linejoin:round;-inkscape-stroke:none"
         d="m 159.8531,19.400206 a 2.2396087,2.2396087 0 0 0 1.44761,2.394789 l 29.42307,10.762428 h -28.39257 a 2.2396087,2.2396087 0 0 0 -2.23924,2.239704 2.2396087,2.2396087 0 0 0 2.23924,2.239239 h 41.03593 a 2.2398326,2.2398326 0 0 0 0.76801,-4.342376 L 167.79159,19.400206 Z" />
      <path
         style="color:#000000;fill:#f5f5f5;stroke-width:0.895844;stroke-linecap:round;stroke-linejoin:round;-inkscape-stroke:none"
         d="m 162.83885,50.246646 a 2.2396087,2.2396087 0 0 0 -2.873,1.333266 2.2396087,2.2396087 0 0 0 1.33502,2.872997 l 29.42286,10.762368 h -28.39229 a 2.2396087,2.2396087 0 0 0 -2.23961,2.239608 2.2396087,2.2396087 0 0 0 2.23961,2.239609 h 41.03558 a 2.2398327,2.2398327 0 0 0 0.76811,-4.342736 z"
         id="path4359" />
      <path
         style="color:#000000;fill:#f5f5f5;stroke-width:0.895844;-inkscape-stroke:none"
         d="m 141.3771,83.298467 -3.28593,3.042724 28.72823,31.036079 -51.13656,34.69293 2.51431,3.70586 55.44956,-37.61843 z"
         id="path4401" />
      <path
         style="color:#000000;fill:#f5f5f5;stroke-width:0.895844;-inkscape-stroke:none"
         d="m 161.76279,83.146246 -36.88181,32.827764 59.55784,39.81079 2.48808,-3.72335 -54.74269,-36.5931 32.55656,-28.976693 z"
         id="path4403" />
      <path
         style="color:#000000;fill:#f5f5f5;stroke-width:0.895844;-inkscape-stroke:none"
         d="m 139.3667,50.453111 v 4.479217 h 25.33208 v -4.479217 z"
         id="path6438" />
      <path
         style="color:#000000;fill:#f5f5f5;stroke-width:0.895844;-inkscape-stroke:none"
         d="m 139.3667,32.57833 v 4.479214 h 25.33208 V 32.57833 Z"
         id="path7107" />
      <path
         style="color:#000000;fill:#f5f5f5;stroke-width:0.895844;-inkscape-stroke:none"
         d="m 139.3667,65.196034 v 4.479217 h 25.33208 v -4.479217 z"
         id="path7109" />
      <path
         style="color:#000000;fill:#f5f5f5;stroke-width:0.899523;stroke-linecap:round;stroke-linejoin:round;-inkscape-stroke:none"
         d="m 93.186774,151.16736 a 4.2318631,5.7838701 0 0 0 -4.231867,5.78387 4.2318631,5.7838701 0 0 0 4.231867,5.78387 H 209.4052 a 4.2318631,5.7838701 0 0 0 4.23188,-5.78387 4.2318631,5.7838701 0 0 0 -4.23188,-5.78387 z"
         id="path7819" />
    </g>
  </g>
</svg>
