<?xml version="1.0" encoding="UTF-8" standalone="no"?>
<!-- Created with Inkscape (http://www.inkscape.org/) -->

<svg
   width="167.02783mm"
   height="159.31703mm"
   viewBox="0 0 167.02783 159.31703"
   version="1.1"
   id="svg45147"
   inkscape:version="1.1.1 (3bf5ae0d25, 2021-09-20)"
   sodipodi:docname="load.svg"
   xmlns:inkscape="http://www.inkscape.org/namespaces/inkscape"
   xmlns:sodipodi="http://sodipodi.sourceforge.net/DTD/sodipodi-0.dtd"
   xmlns="http://www.w3.org/2000/svg"
   xmlns:svg="http://www.w3.org/2000/svg">
  <sodipodi:namedview
     id="namedview45149"
     pagecolor="#ffffff"
     bordercolor="#666666"
     borderopacity="1.0"
     inkscape:pageshadow="2"
     inkscape:pageopacity="0.0"
     inkscape:pagecheckerboard="0"
     inkscape:document-units="mm"
     showgrid="false"
     fit-margin-top="0"
     fit-margin-left="0"
     fit-margin-right="0"
     fit-margin-bottom="0"
     inkscape:zoom="0.46324355"
     inkscape:cx="303.29618"
     inkscape:cy="432.81768"
     inkscape:window-width="1366"
     inkscape:window-height="705"
     inkscape:window-x="-8"
     inkscape:window-y="-8"
     inkscape:window-maximized="1"
     inkscape:current-layer="layer1"
     showguides="false"
     inkscape:guide-bbox="true">
    <sodipodi:guide
       position="85.101918,88.493952"
       orientation="1,0"
       id="guide4130" />
    <sodipodi:guide
       position="85.101918,88.493952"
       orientation="0,-1"
       id="guide4165" />
    <sodipodi:guide
       position="25.130768,191.87279"
       orientation="0,-1"
       id="guide7828" />
  </sodipodi:namedview>
  <defs
     id="defs45144" />
  <g
     inkscape:label="Layer 1"
     inkscape:groupmode="layer"
     id="layer1"
     transform="translate(-56.418777,-6.5857115)">
    <g
       id="g7835">
      <path
         id="rect992"
         style="color:#000000;fill:#f5f5f5;stroke-width:3.77953;stroke-linecap:round;stroke-linejoin:round;-inkscape-stroke:none"
         d="m 146.14453,199.17188 a 20.78948,20.78948 0 0 0 -20.78906,20.78906 v 317.55273 a 20.78948,20.78948 0 0 0 20.78906,20.78711 h 342.23828 a 20.78948,20.78948 0 0 0 20.78711,-20.78711 V 280.41992 l -41.57226,47.91016 V 516.72656 H 166.93359 V 240.74805 H 167 v -41.57617 z"
         transform="matrix(0.26458333,0,0,0.26458333,56.418777,6.5857115)" />
      <path
         style="color:#000000;fill:#f5f5f5;stroke-linejoin:round;-inkscape-stroke:none"
         d="m 125.59557,100.23664 a 5.1710169,5.1710169 0 0 0 -5.16992,5.16993 v 41.3457 h 10.33984 v -36.17383 h 19.19141 v 36.71094 h 10.33984 v -41.88281 a 5.1710169,5.1710169 0 0 0 -5.16992,-5.16993 z"
         id="path2750" />
      <path
         style="color:#000000;fill:#f5f5f5;stroke-linecap:round;stroke-linejoin:round;-inkscape-stroke:none"
         d="m 140.42387,18.801098 a 5.5,5.5 0 0 0 -3.97851,1.373046 L 65.568406,82.99641 a 5.5,5.5 0 0 0 -0.466797,7.763672 5.5,5.5 0 0 0 7.763672,0.46875 L 143.74028,28.406566 a 5.5,5.5 0 0 0 0.46875,-7.763672 5.5,5.5 0 0 0 -3.78516,-1.841796 z"
         id="path4167" />
      <path
         id="path5433"
         style="color:#000000;fill:#f5f5f5;stroke-width:3.77953;stroke-linecap:round;stroke-linejoin:round;-inkscape-stroke:none"
         d="m 314.99805,46.167969 a 20.787402,20.787402 0 0 0 -14.30664,6.960937 20.787402,20.787402 0 0 0 1.77148,29.34375 l 70.58594,62.564454 29.44922,-29.44922 -72.46485,-64.230468 a 20.787402,20.787402 0 0 0 -15.03515,-5.189453 z m 228.64453,194.523441 -27.25,31.40429 53.94336,47.81446 a 20.787402,20.787402 0 0 0 29.34375,-1.77149 20.787402,20.787402 0 0 0 -1.76367,-29.34179 z"
         transform="matrix(0.26458333,0,0,0.26458333,56.418777,6.5857115)" />
      <path
         style="fill:#f5f5f5;fill-opacity:1;stroke:#f5f5f5;stroke-width:3.49225;stroke-linecap:round;stroke-linejoin:round;stroke-miterlimit:4;stroke-dasharray:none;stroke-opacity:1"
         d="m 193.10605,20.723381 -37.28789,36.890787 19.02023,6.31946 -14.17115,31.469169 39.2234,-38.007693 -19.37244,-6.436484 z"
         id="path5637" />
    </g>
  </g>
</svg>
