<?xml version="1.0" encoding="UTF-8" standalone="no"?>
<!-- Created with Inkscape (http://www.inkscape.org/) -->

<svg
   width="68.338631mm"
   height="79.330086mm"
   viewBox="0 0 68.338631 79.330086"
   version="1.1"
   id="svg5"
   inkscape:version="1.1.1 (3bf5ae0d25, 2021-09-20)"
   sodipodi:docname="weather-station.svg"
   xmlns:inkscape="http://www.inkscape.org/namespaces/inkscape"
   xmlns:sodipodi="http://sodipodi.sourceforge.net/DTD/sodipodi-0.dtd"
   xmlns="http://www.w3.org/2000/svg"
   xmlns:svg="http://www.w3.org/2000/svg">
  <sodipodi:namedview
     id="namedview7"
     pagecolor="#ffffff"
     bordercolor="#666666"
     borderopacity="1.0"
     inkscape:pageshadow="2"
     inkscape:pageopacity="0.0"
     inkscape:pagecheckerboard="0"
     inkscape:document-units="mm"
     showgrid="false"
     fit-margin-top="0"
     fit-margin-left="0"
     fit-margin-right="0"
     fit-margin-bottom="0"
     inkscape:zoom="0.92648709"
     inkscape:cx="16.729861"
     inkscape:cy="198.05996"
     inkscape:window-width="1366"
     inkscape:window-height="705"
     inkscape:window-x="-8"
     inkscape:window-y="-8"
     inkscape:window-maximized="1"
     inkscape:current-layer="layer1" />
  <defs
     id="defs2" />
  <g
     inkscape:label="Layer 1"
     inkscape:groupmode="layer"
     id="layer1"
     transform="translate(-78.748058,-94.983349)">
    <path
       id="rect10772"
       style="fill:#fdfdfd;fill-opacity:1;stroke:none;stroke-width:1.14711;stroke-miterlimit:4;stroke-dasharray:none;stroke-opacity:1"
       d="m 110.72685,96.119713 0.0977,2.289222 1.65215,0.04685 3.51905,0.09871 v 3.114025 3.11404 c -0.70458,0.009 -1.35413,0.0257 -1.97679,0.0469 a 4.5234372,4.5234372 0 0 0 -4.40951,-3.51397 4.5234372,4.5234372 0 0 0 -4.52349,4.52349 4.5234372,4.5234372 0 0 0 4.52349,4.52349 4.5234372,4.5234372 0 0 0 4.3164,-3.17306 c 0.64803,0.0159 1.33597,0.025 2.0699,0.025 v 5.90495 5.90547 l -0.0722,2.16201 h -4.66189 c -2.12789,0 -3.84065,1.48071 -3.84065,3.32061 v 16.22401 c 0,1.83991 1.71276,3.32061 3.84065,3.32061 h 3.50786 l -2.5645,5.44041 c -1.64037,3.4793 -3.12486,6.33209 -3.29873,6.33898 -0.12785,0.005 -0.98212,-0.44783 -2.08519,-1.09347 l 1.03648,-1.96204 h -7.41412 l -2.420505,4.58301 h 7.413625 l 0.10991,-0.2076 c 1.11709,0.63858 1.9417,1.18108 2.00224,1.33873 0.0827,0.21566 -1.34351,3.54739 -3.1695,7.40396 -1.826,3.85657 -3.3201,7.13517 -3.3201,7.28593 0,0.15074 0.3517,0.44398 0.78156,0.65129 h 5.2e-4 c 0.42986,0.20732 0.90872,0.38755 1.06447,0.40046 0.15576,0.0129 1.53683,-2.59501 3.06874,-5.79505 1.53192,-3.20007 2.85537,-5.8884 2.94104,-5.97416 0.0856,-0.0858 1.71397,1.39648 3.61827,3.29364 l 3.46207,3.44935 v 2.35079 2.3513 h 1.2161 1.2156 v -2.17728 -2.17677 l 3.62947,-3.61727 3.62948,-3.61725 2.8067,5.8617 c 1.54347,3.22408 2.85438,5.91041 2.91355,5.96958 0.12392,0.12391 2.30449,-0.60214 2.30449,-0.76731 0,-0.0602 -3.20406,-6.85419 -7.12056,-15.09798 -3.52239,-7.41425 -6.14294,-12.98802 -6.70026,-14.23295 h 4.26858 c 2.12788,0 3.84115,-1.4807 3.84115,-3.32061 V 124.5074 c 0,-1.8399 -1.71327,-3.32061 -3.84115,-3.32061 h -5.52486 l -0.0885,-2.32841 0.0168,-1.24764 13.69156,0.0245 c 12.05036,0.0219 13.93583,-0.0699 14.31997,-0.53274 0.36342,-0.43788 0.18711,-1.8486 -0.98764,-7.90261 -1.7214,-8.87122 -1.52253,-8.58497 -5.96958,-8.58497 -4.43235,0 -4.30078,-0.17657 -5.85305,7.82477 l -1.27868,6.59034 h -6.94199 -6.94193 v -3.82079 -3.82079 c 0.86369,-0.008 1.63591,-0.0392 2.36502,-0.0804 a 4.5234372,4.5234372 0 0 0 4.27468,3.0545 4.5234372,4.5234372 0 0 0 4.52348,-4.52347 4.5234372,4.5234372 0 0 0 -4.52348,-4.52349 4.5234372,4.5234372 0 0 0 -4.41002,3.51549 c -0.72843,-0.0281 -1.50419,-0.0479 -2.38183,-0.0479 l -0.0977,-4.25533 -0.0977,-4.255333 -3.70937,-0.09821 z m 21.61861,23.544017 v 1.6257 h 13.63916 v -1.6257 z m 1.96866,2.90539 v 1.6247 h 9.70184 v -1.6247 z m -23.70429,3.25549 h 13.91748 v 1.84452 h -13.91748 z m 0,3.43867 h 8.64856 v 1.84247 h -8.64856 z m 0,3.43867 h 5.16918 v 1.84298 h -5.16918 z m 5.33304,14.97992 0.0265,8.94419 c 0.0145,4.91949 -0.0164,8.94469 -0.0682,8.94469 -0.052,0 -1.38529,-1.29766 -2.96342,-2.88405 l -2.86979,-2.88454 2.93746,-6.06014 z m -28.4364,0.144 -2.007329,3.80144 h 6.410224 l 2.007837,-3.80144 z m 7.72351,0 -2.007328,3.80144 h 6.514533 l 2.007835,-3.80144 z m 7.82782,0 -2.00734,3.80144 h 7.41364 l 2.00784,-3.80144 z m 15.5554,0.0295 c 0.24495,0 5.71923,11.44095 5.71923,11.95289 0,0.21726 -1.215,1.60278 -2.69985,3.07893 -1.48484,1.47614 -2.81316,2.68356 -2.95222,2.68356 -0.13905,0 -0.25289,-3.98597 -0.25289,-8.85769 0,-4.87173 0.0834,-8.85769 0.18573,-8.85769 z m -33.721092,4.92037 -2.420498,4.58303 h 6.410224 l 2.421007,-4.58303 z m 7.723511,0 -2.420498,4.58303 h 6.514533 l 2.421009,-4.58303 z m -10.751042,5.73145 -2.41083,4.56471 h 6.410224 l 2.411339,-4.56471 z m 7.723511,0 -2.41083,4.56471 h 6.514533 l 2.41134,-4.56471 z m 7.827821,0 -2.410831,4.56471 h 7.413622 l 2.41134,-4.56471 z" />
  </g>
</svg>
